<svg width="24" height="24" viewBox="0 0 24 24" fill="none" xmlns="http://www.w3.org/2000/svg">
<path fill-rule="evenodd" clip-rule="evenodd" d="M20.53 11.47C20.6705 11.6106 20.7494 11.8012 20.7494 12C20.7494 12.1987 20.6705 12.3893 20.53 12.53L14.53 18.53C14.4614 18.6037 14.3786 18.6628 14.2866 18.7038C14.1946 18.7447 14.0953 18.7668 13.9946 18.7686C13.8939 18.7703 13.7938 18.7518 13.7005 18.7141C13.6071 18.6764 13.5222 18.6202 13.451 18.549C13.3798 18.4778 13.3236 18.393 13.2859 18.2996C13.2482 18.2062 13.2297 18.1062 13.2315 18.0054C13.2332 17.9047 13.2553 17.8054 13.2963 17.7134C13.3373 17.6214 13.3964 17.5386 13.4701 17.47L18.19 12.75L4.00005 12.75C3.80114 12.75 3.61037 12.671 3.46972 12.5303C3.32907 12.3896 3.25005 12.1989 3.25005 12C3.25005 11.8011 3.32907 11.6103 3.46972 11.4696C3.61037 11.329 3.80114 11.25 4.00005 11.25L18.19 11.25L13.47 6.52997C13.3964 6.46131 13.3373 6.37851 13.2963 6.28651C13.2553 6.19451 13.2332 6.0952 13.2315 5.99449C13.2297 5.89379 13.2482 5.79376 13.2859 5.70037C13.3236 5.60698 13.3798 5.52215 13.451 5.45093C13.5222 5.37971 13.6071 5.32357 13.7005 5.28585C13.7938 5.24813 13.8939 5.2296 13.9946 5.23138C14.0953 5.23316 14.1946 5.2552 14.2866 5.29619C14.3786 5.33718 14.4614 5.39628 14.53 5.46997L20.53 11.47Z" fill="white"/>
</svg>
