<svg width="368pt" height="370pt" viewBox="0 0 368 370" xmlns="http://www.w3.org/2000/svg"><g fill="#6a6a6a"><path d="M258.43 21.69c8.36-1.97 17.57.21 24.08 5.82 7.52 6.27 11.16 16.68 9.26 26.28-2.24 12.92-14.68 23.02-27.82 22.37-13.54-.06-25.76-11.54-26.68-25.05-1.52-13.3 8.09-26.62 21.16-29.42zM120.52 131.68c12.13-1.45 24.73 1.21 35.15 7.63 12.21 7.38 21.32 19.69 24.78 33.54 3.5 13.73 1.53 28.8-5.59 41.08-7.69 13.57-21.41 23.57-36.72 26.62-13.5 2.78-28.05.33-39.78-6.96-13.11-7.93-22.6-21.57-25.4-36.64-2.76-14.24.29-29.53 8.53-41.49 8.78-13.06 23.38-22.02 39.03-23.78zM237.1 186.36c18.37.03 36.73 0 55.1.02.08 31.07-8.75 62.13-25.43 88.36-17.85 28.21-44.32 50.96-75.07 64.01-20.38 8.72-42.55 13.11-64.7 13.11.01-18.4-.02-36.81.02-55.21 28.05.06 55.88-11.14 76.03-30.65 21.57-20.46 34.13-49.92 34.05-79.64z"/></g></svg>